<mxfile host="app.diagrams.net" modified="2021-02-26T23:07:38.606Z" agent="5.0 (Windows NT 10.0; Win64; x64) AppleWebKit/537.36 (KHTML, like Gecko) Chrome/88.0.4324.190 Safari/537.36" etag="lWTl6FRwes0gk1k1nZfV" version="14.3.2" type="github">
  <diagram id="jawasLtlJBg5kICThBSy" name="Page-1">
    <mxGraphModel dx="1422" dy="705" grid="1" gridSize="10" guides="1" tooltips="1" connect="1" arrows="1" fold="1" page="1" pageScale="1" pageWidth="827" pageHeight="1169" math="0" shadow="0">
      <root>
        <mxCell id="0" />
        <mxCell id="1" parent="0" />
        <mxCell id="9bB71XWWkJMglZU5HQae-3" value="&lt;p style=&quot;margin: 0px ; margin-top: 4px ; margin-left: 10px ; text-align: left&quot;&gt;&lt;b&gt;HUBDATOS&lt;/b&gt;&lt;/p&gt;" style="html=1;shape=mxgraph.sysml.package;xSize=90;align=left;spacingLeft=10;overflow=fill;strokeWidth=1;recursiveResize=0;" vertex="1" parent="1">
          <mxGeometry x="10" y="10" width="750" height="340" as="geometry" />
        </mxCell>
        <mxCell id="9bB71XWWkJMglZU5HQae-7" value="" style="html=1;outlineConnect=0;whiteSpace=wrap;shape=mxgraph.archimate3.application;archiType=rounded;strokeColor=#d79b00;sketch=0;shadow=1;fillColor=#0800FF;" vertex="1" parent="1">
          <mxGeometry x="310" y="20" width="130" height="70" as="geometry" />
        </mxCell>
      </root>
    </mxGraphModel>
  </diagram>
</mxfile>
